<svg xmlns="http://www.w3.org/2000/svg" viewBox="0 0 512 512" fill="none">
  <!-- Background rounded square -->
  <rect width="512" height="512" rx="96" fill="#1E3A5F"/>

  <!-- Road / highway lines -->
  <rect x="236" y="80" width="40" height="352" rx="20" fill="#3B82F6" opacity="0.25"/>

  <!-- Map / route path -->
  <path d="M160 400 C160 400 160 300 200 260 C240 220 270 220 270 160 C270 120 256 96 256 96"
        stroke="#7DD3FC" stroke-width="22" stroke-linecap="round" stroke-linejoin="round" fill="none"/>
  <path d="M352 400 C352 400 352 300 312 260 C272 220 242 220 242 160 C242 120 256 96 256 96"
        stroke="#7DD3FC" stroke-width="22" stroke-linecap="round" stroke-linejoin="round" fill="none"/>

  <!-- Center dashed lane markers -->
  <rect x="248" y="160" width="16" height="48" rx="8" fill="#fff" opacity="0.6"/>
  <rect x="248" y="232" width="16" height="48" rx="8" fill="#fff" opacity="0.6"/>
  <rect x="248" y="304" width="16" height="48" rx="8" fill="#fff" opacity="0.6"/>

  <!-- Alert / pin circle at top -->
  <circle cx="256" cy="96" r="28" fill="#EF4444"/>
  <circle cx="256" cy="96" r="13" fill="#fff"/>

  <!-- Pulse ring -->
  <circle cx="256" cy="96" r="38" stroke="#EF4444" stroke-width="6" opacity="0.4"/>
</svg>
